<?xml version="1.0" encoding="utf-8"?>
<!-- Generator: Adobe Illustrator 19.2.1, SVG Export Plug-In . SVG Version: 6.00 Build 0)  -->
<svg version="1.1" id="Layer_1" xmlns="http://www.w3.org/2000/svg" xmlns:xlink="http://www.w3.org/1999/xlink" x="0px" y="0px"
	 viewBox="0 0 102.3 134.6" style="enable-background:new 0 0 102.3 134.6;" xml:space="preserve">
<style type="text/css">
	.st0{display:none;}
	.st1{display:inline;stroke:#000000;stroke-miterlimit:10;}
	.st2{fill:#FFFFFF;}
</style>
<g id="Layer_2" class="st0">
	<rect x="-2.7" y="42.9" class="st1" width="422" height="42"/>
</g>
<path class="st2" d="M81.2,108.5c-2.2,2.6-4.7,5.1-7.3,7.4c-9.9,8.8-19.8,13.4-22.8,14.6c-2.9-1.2-12.8-5.8-22.6-14.5
	c-2.7-2.4-5.2-4.9-7.4-7.5l30.1-23.1L5.1,50.1h92.2L51.2,85.4L81.2,108.5z M9,18.3c0,0,0.1-0.1,0.1,0c4.5,0.2,5.9,2.9,5.9,3
	c0.5,0.8,0.6,1.8,0.4,2.8c0.1-0.1,0.1-0.1,0.2-0.2c0,0,0.1-0.1,0.2-0.1c0,0,0.1-0.1,0.1-0.1l0,0c0,0,0.1,0,0.1-0.1c0,0,0.1,0,0.1,0
	l0.2-0.1c0,0,0.1,0,0.1,0c0,0,0,0,0.1,0c0,0,0.1,0,0.1,0l0.1,0c0,0,0.1,0,0.1,0c0,0,0,0,0.1,0c0,0,0.1,0,0.1,0l0.1,0
	c0,0,0.1,0,0.1,0l0.1,0c0,0,0.1,0,0.1,0l0.1,0c0,0,0.1,0,0.1,0l0.3,0c0,0,0.1,0,0.1,0l0.1,0c0.1,0,3.1-0.2,5.6,3.7
	c0,0.1,0,0.2,0,0.3c-0.8,1.3-1.8,2.3-2.9,2.9c-0.8,0.5-1.5,0.7-2,0.7c0.4,0.2,0.7,0.5,0.9,0.9c0.4,0.6,0.4,1.3,0.3,2
	c-0.2,0.7-0.6,1.3-1.2,1.6c0,0,0,0-0.1,0c0,0-0.1,0-0.1-0.1L9,18.5C9,18.4,9,18.4,9,18.3 M25.7,19.9l3.8-1l-1-3.8
	c-0.1-0.5,0.2-1,0.7-1.2l2.3-0.6c0.5-0.1,1,0.2,1.2,0.7l1,3.8l3.8-1c0.5-0.1,1,0.2,1.2,0.7l0.6,2.3c0.1,0.5-0.2,1-0.7,1.2l-3.8,1
	l1.4,5.1c0.1,0.5-0.2,1-0.7,1.2l-2.3,0.6c-0.5,0.1-1-0.2-1.2-0.7L30.6,23l-3.8,1c-0.5,0.1-1-0.2-1.2-0.7L25,21.1
	C24.9,20.6,25.2,20.1,25.7,19.9 M45.6,15.6C45.6,15.6,45.6,15.6,45.6,15.6l0.1-0.1c0,0,0.1,0,0.1-0.1l0.6-0.2l0.4-0.1
	c0,0,0.1,0,0.1,0l0.1,0c0,0,0.1,0,0.1,0l0.1,0c0,0,0.1,0,0.1,0l0.2,0l0.1,0c0,0,0.1,0,0.1,0l0.1,0c0.1,0,0.1,0,0.1,0
	c0.1,0,0.1,0,0.2,0c0.1,0,0.2,0,0.3,0.1c-0.7-0.7-1-1.6-1-2.6c0-0.1-0.2-3.1,3.7-5.5c0.1,0,0.2,0,0.3,0c3.9,2.4,3.7,5.5,3.7,5.6
	c0,1-0.4,1.9-1,2.6c0.1,0,0.3-0.1,0.5-0.1c0.1,0,0.1,0,0.2,0l0.1,0c0,0,0.1,0,0.1,0l0.1,0l0.2,0c0,0,0.1,0,0.1,0l0.1,0
	c0,0,0.1,0,0.1,0l0.1,0c0,0,0.1,0,0.1,0l0.1,0c0,0,0.1,0,0.1,0l0,0c0,0,0.1,0,0.1,0l0,0c0,0,0.1,0,0.1,0l0,0c0,0,0.1,0,0.1,0.1l0,0
	c0,0,0.1,0,0.1,0.1l0,0c0,0,0.1,0,0.1,0.1l0.1,0c0,0,0,0,0.1,0c0.2,0.1,2.8,1.4,3,5.9c0,0.1,0,0.2-0.1,0.2c-2.9,1.6-5.1,1.1-6.1,0.7
	c0.2,0.4,0.3,0.8,0.3,1.2c0,1.5-1.2,2.6-2.6,2.6c-1.5,0-2.6-1.2-2.6-2.6c0-0.4,0.1-0.8,0.3-1.2c-0.5,0.2-1.2,0.4-2.1,0.4
	c-1.3,0-2.6-0.4-4-1.1c-0.1,0-0.1-0.1-0.1-0.2C42.8,17,45.5,15.7,45.6,15.6 M63.1,19.8l0.6-2.3c0.1-0.5,0.7-0.8,1.2-0.7l3.8,1l1-3.8
	c0.1-0.5,0.7-0.8,1.2-0.7l2.3,0.6c0.5,0.1,0.8,0.7,0.7,1.2l-1,3.8l3.8,1c0.5,0.1,0.8,0.7,0.7,1.2l-0.6,2.3c-0.1,0.5-0.7,0.8-1.2,0.7
	l-3.8-1l-1.4,5.1c-0.1,0.5-0.7,0.8-1.2,0.7l-2.3-0.6c-0.5-0.1-0.8-0.7-0.7-1.2l1.4-5.1l-3.8-1C63.3,20.8,63,20.3,63.1,19.8
	 M82.2,37.7l-3.4,5.9c-8.4-4.8-18-7.4-27.7-7.4s-19.3,2.6-27.7,7.4l-3.4-5.9c9.4-5.4,20.2-8.3,31.1-8.3
	C62.1,29.4,72.8,32.3,82.2,37.7 M78.6,26.6c2.4-3.8,5.4-3.7,5.6-3.7l0.1,0c0,0,0.1,0,0.1,0l0.3,0c0,0,0.1,0,0.1,0l0.1,0
	c0,0,0.1,0,0.1,0l0.1,0c0,0,0.1,0,0.1,0l0.1,0c0,0,0.1,0,0.1,0c0,0,0,0,0.1,0c0,0,0.1,0,0.1,0l0.1,0c0,0,0.1,0,0.1,0c0,0,0,0,0.1,0
	c0,0,0.1,0,0.1,0l0.2,0.1c0,0,0.1,0,0.1,0c0,0,0.1,0,0.1,0.1l0,0c0,0,0.1,0.1,0.1,0.1c0.1,0.1,0.1,0.1,0.2,0.1
	c0.1,0.1,0.1,0.1,0.2,0.2c-0.2-0.9-0.1-1.9,0.4-2.8c0.1-0.1,1.4-2.8,5.9-3c0.1,0,0.1,0,0.1,0c0.1,0,0.1,0.1,0,0.2L83.8,35
	c0,0-0.1,0.1-0.1,0.1c0,0,0,0-0.1,0c-0.6-0.4-1-0.9-1.2-1.6c-0.2-0.7-0.1-1.4,0.3-2c0.2-0.4,0.5-0.7,0.9-0.9c-0.5-0.1-1.2-0.3-2-0.7
	c-1.1-0.6-2.1-1.6-2.9-2.9C78.6,26.8,78.6,26.7,78.6,26.6 M2.6,1.4c0,0,0,15.3,0,63.9c0,49.6,48.5,67.8,48.5,67.8
	s48.5-18.2,48.5-67.8c0-48.7,0-63.9,0-63.9H2.6z"/>
</svg>
